HIERARCHY
ROOT hip
{
	OFFSET 0.000000 0.000000 0.000000 
	CHANNELS 6 Xposition Yposition Zposition Xrotation Zrotation Yrotation
	JOINT abdomen
	{
		OFFSET 0.000000 3.402643 0.000000 
		CHANNELS 3 Xrotation Zrotation Yrotation
		JOINT chest
		{
			OFFSET 0.000000 8.438565 -0.680529 
			CHANNELS 3 Xrotation Zrotation Yrotation
			JOINT neck
			{
				OFFSET 0.000000 10.207942 -0.272212 
				CHANNELS 3 Xrotation Zrotation Yrotation
				JOINT head
				{
					OFFSET 0.000000 3.130431 0.000000 
					CHANNELS 3 Xrotation Zrotation Yrotation
					End Site
					{
						OFFSET 0.000000 3.130435 0.000000 
					}
				}
			}
			JOINT lCollar
			{
				OFFSET 3.470700 6.669187 -0.816635 
				CHANNELS 3 Yrotation Zrotation Xrotation
				JOINT lShldr
				{
					OFFSET 3.198488 0.000000 0.000000 
					CHANNELS 3 Zrotation Yrotation Xrotation
					JOINT lForeArm
					{
						OFFSET 10.139888 0.000000 0.000000 
						CHANNELS 3 Yrotation Zrotation Xrotation
						JOINT lHand
						{
							OFFSET 8.370511 0.000000 0.000000 
							CHANNELS 3 Zrotation Yrotation Xrotation
							End Site
							{
								OFFSET 4.083176 0.000000 0.000000 
							}
						}
					}
				}
			}
			JOINT rCollar
			{
				OFFSET -3.470700 6.669187 -0.816635 
				CHANNELS 3 Yrotation Zrotation Xrotation
				JOINT rShldr
				{
					OFFSET -3.198488 0.000000 0.000000 
					CHANNELS 3 Zrotation Yrotation Xrotation
					JOINT rForeArm
					{
						OFFSET -10.139888 0.000000 0.000000 
						CHANNELS 3 Yrotation Zrotation Xrotation
						JOINT rHand
						{
							OFFSET -8.370511 0.000000 0.000000 
							CHANNELS 3 Zrotation Yrotation Xrotation
							End Site
							{
								OFFSET -4.083176 0.000000 0.000000 
							}
						}
					}
				}
			}
		}
	}
	JOINT lThigh
	{
		OFFSET 5.308129 -1.633274 1.361059 
		CHANNELS 3 Xrotation Zrotation Yrotation
		JOINT lShin
		{
			OFFSET -2.041588 -20.007561 0.000000 
			CHANNELS 3 Xrotation Zrotation Yrotation
			JOINT lFoot
			{
				OFFSET 0.000000 -19.190928 -1.224953 
				CHANNELS 3 Xrotation Yrotation Zrotation
				End Site
				{
					OFFSET 0.000000 -2.449906 4.627600 
				}
			}
		}
	}
	JOINT rThigh
	{
		OFFSET -5.308129 -1.633274 1.361059 
		CHANNELS 3 Xrotation Zrotation Yrotation
		JOINT rShin
		{
			OFFSET 2.041588 -20.007561 0.000000 
			CHANNELS 3 Xrotation Zrotation Yrotation
			JOINT rFoot
			{
				OFFSET 0.000000 -19.190928 -1.224953 
				CHANNELS 3 Xrotation Yrotation Zrotation
				End Site
				{
					OFFSET 0.000000 -2.449906 4.627600 
				}
			}
		}
	}
}
MOTION
Frames: 18
Frame Time: 0.005000
-10.169050 49.840202 -19.491604 3.410568 -7.808583 71.078049 0.000000 0.000000 0.000000 13.738899 5.607419 6.056159 19.567528 -4.403358 -20.858459 11.861601 20.243330 -20.305899 -6.412775 -14.464432 -1.166730 -67.332390 -10.758000 41.703777 -3.006431 -6.292028 0.030969 9.888996 3.811118 2.753354 1.505881 16.435740 -0.692179 58.165829 16.632811 38.777164 17.110596 -0.322136 0.287449 0.948339 7.079423 -4.893895 -29.704012 8.808143 -10.140779 31.817856 3.914220 -11.702647 -6.956542 7.308847 -6.850073 -24.176493 0.458189 15.688461 26.486895 2.475734 17.398737 -11.461613 -9.150134 -1.486752 
-10.021011 49.821243 -19.783556 3.679770 -8.147458 68.862297 0.000000 0.000000 0.000000 13.745113 5.455411 6.156865 19.580738 -4.683125 -20.306177 12.032942 19.986523 -19.683205 -6.100979 -14.496503 -1.121287 -66.978325 -10.972575 41.533058 -3.799249 -6.039913 0.011905 10.567451 3.944669 2.176556 1.952977 16.353945 -0.754703 58.014248 16.673603 38.718578 16.788643 -0.260819 0.247266 1.282012 6.981103 -4.776709 -29.281790 9.716109 -11.751859 28.839834 3.650923 -12.439546 -7.049967 7.239723 -6.985276 -24.924934 0.456751 16.178411 26.607298 2.396814 17.806389 -11.525494 -8.287633 -0.419105 
-9.875385 49.794292 -20.075092 3.939884 -8.505536 66.622604 0.000000 0.000000 0.000000 13.771032 5.302972 6.239786 19.593796 -4.949094 -19.721050 12.203352 19.710136 -19.037161 -5.788584 -14.507168 -1.093071 -66.582397 -11.167045 41.278881 -4.601459 -5.747724 -0.016219 11.245519 4.098221 1.618699 2.420539 16.310883 -0.825827 57.846565 16.726696 38.612499 16.533730 -0.259931 0.279018 1.615591 6.872903 -4.747412 -28.870363 10.780390 -13.499354 25.915298 3.248892 -13.036384 -7.166332 7.166206 -7.206669 -25.730978 0.526757 16.690067 26.699320 2.343827 18.130199 -11.586713 -7.361795 0.639342 
-9.732863 49.759277 -20.366306 4.200974 -8.892444 64.348236 0.000000 0.000000 0.000000 13.796620 5.131600 6.297494 19.587482 -5.210732 -19.106230 12.373034 19.423939 -18.354193 -5.465838 -14.508403 -1.061440 -66.145027 -11.349266 40.899628 -5.364284 -5.483978 -0.046073 11.914127 4.213070 1.101246 2.918849 16.297016 -0.896163 57.640274 16.776344 38.453583 16.349432 -0.309139 0.246373 1.890193 6.764754 -4.721561 -28.493826 12.021173 -15.357923 23.108807 2.700534 -13.367599 -7.313365 7.032938 -7.486628 -26.565113 0.641620 17.198366 26.763441 2.293672 18.375620 -11.624304 -6.404460 1.715337 
-9.594050 49.716408 -20.658422 4.463181 -9.308123 62.058353 0.000000 0.000000 0.000000 13.822320 4.960267 6.346154 19.571709 -5.443129 -18.472307 12.521081 19.118641 -17.667500 -5.173123 -14.500328 -1.026540 -65.659424 -11.498217 40.422932 -6.126359 -5.200788 -0.066877 12.563294 4.318375 0.603818 3.407611 16.322294 -0.965836 57.414154 16.850170 38.259434 16.222069 -0.360379 0.277159 2.145132 6.666354 -4.784750 -28.136137 13.416690 -17.286470 20.407454 2.028253 -13.333400 -7.508572 6.805665 -7.840600 -27.443378 0.836622 17.695208 26.819054 2.241257 18.590609 -11.654485 -5.408955 2.822403 
-9.459144 49.666241 -20.953911 4.736709 -9.762115 59.740360 0.000000 0.000000 0.000000 13.847741 4.770009 6.389968 19.555872 -5.636936 -17.814615 12.657674 18.784317 -16.961378 -4.930859 -14.492234 -0.994155 -65.107674 -11.606445 39.839275 -6.859062 -4.915511 -0.097905 13.183720 4.384679 0.089358 3.887121 16.386057 -1.048294 57.149097 16.917425 38.054329 16.193586 -0.478477 0.290080 2.331282 6.558346 -4.930087 -27.847452 14.950462 -19.153885 17.830591 1.237799 -12.954433 -7.695804 6.500942 -8.262665 -28.375463 1.072591 18.165892 26.845516 2.197446 18.776310 -11.640370 -4.395303 3.983642 
-9.327639 49.609779 -21.256170 5.031432 -10.234690 57.412971 0.000000 0.000000 0.000000 13.863135 4.561025 6.417585 19.540651 -5.802739 -17.147001 12.762752 18.440937 -16.260075 -4.749124 -14.483134 -0.978859 -64.513657 -11.644829 39.211224 -7.619785 -4.573197 -0.105779 13.736269 4.440701 -0.490206 4.347257 16.479908 -1.115987 56.831406 17.014885 37.815083 16.233982 -0.573611 0.278619 2.429100 6.460367 -5.129422 -27.609634 16.570757 -20.855309 15.367724 0.361261 -12.250496 -7.866980 6.123584 -8.721398 -29.338312 1.344481 18.562263 26.881779 2.113233 19.013165 -11.666496 -3.412804 5.203160 
-9.198126 49.548512 -21.568853 5.367472 -10.725352 55.081585 0.000000 0.000000 0.000000 13.878352 4.333110 6.450946 19.517000 -5.943565 -16.489189 12.836275 18.078783 -15.567360 -4.668450 -14.482912 -0.978913 -63.879208 -11.623980 38.512497 -8.380016 -4.200908 -0.109991 14.240650 4.467069 -1.114984 4.768085 16.613424 -1.177219 56.467026 17.142778 37.577442 16.361847 -0.700406 0.300580 2.467987 6.352815 -5.449393 -27.408348 18.212057 -22.246275 13.096045 -0.548378 -11.305023 -8.046452 5.687799 -9.251213 -30.350758 1.631149 18.878340 26.859903 2.008741 19.270622 -11.668078 -2.434270 6.475204 
-9.068305 49.484268 -21.895092 5.744813 -11.214369 52.754696 0.000000 0.000000 0.000000 13.922813 4.085752 6.490612 19.503965 -6.057614 -15.831817 12.858650 17.727516 -14.892780 -4.708780 -14.485349 -0.949681 -63.167412 -11.552183 37.715836 -9.100846 -3.838837 -0.103740 14.687485 4.444038 -1.756652 5.159478 16.766136 -1.243394 56.052372 17.298910 37.314884 16.568184 -0.829519 0.317120 2.408750 6.245591 -5.872769 -27.254992 19.802130 -23.116152 11.003021 -1.403035 -10.307893 -8.107601 5.203090 -9.838051 -31.365335 1.904073 19.093237 26.777227 1.890374 19.599566 -11.643299 -1.488049 7.783768 
-8.935294 49.418839 -22.236895 6.163517 -11.691723 50.443878 0.000000 0.000000 0.000000 13.996557 3.819053 6.527822 19.492348 -6.163523 -15.180798 12.820167 17.397049 -14.244367 -4.860693 -14.512071 -0.988488 -62.435833 -11.399414 36.896988 -9.909135 -3.335759 -0.106899 14.998472 4.419219 -2.448311 5.501373 16.948069 -1.309884 55.587601 17.465946 37.039089 16.852861 -0.986189 0.346634 2.271042 6.138616 -6.378874 -27.116138 21.278486 -23.362846 9.255914 -2.168589 -9.371537 -8.134928 4.727926 -10.454133 -32.371819 2.148286 19.193840 26.653576 1.752784 19.991209 -11.618493 -0.594508 9.097133 
-8.796195 49.353634 -22.594767 6.603342 -12.138163 48.174248 0.000000 0.000000 0.000000 14.119183 3.532820 6.542421 19.502806 -6.272828 -14.560160 12.731760 17.106543 -13.607207 -5.143775 -14.538910 -1.032365 -61.641739 -11.195563 35.993732 -10.639344 -2.883119 -0.093631 15.232563 4.344524 -3.096437 5.834093 17.140684 -1.366843 55.059677 17.635971 36.711445 17.187704 -1.163199 0.345856 2.035240 6.022148 -6.949328 -26.990278 22.558010 -22.834177 7.875772 -2.811965 -8.701799 -8.150213 4.272614 -11.072392 -33.343880 2.350950 19.195810 26.449982 1.596211 20.442724 -11.564465 0.242658 10.422936 
-8.648732 49.289421 -22.967747 7.053976 -12.544109 45.949329 0.000000 0.000000 0.000000 14.310556 3.245898 6.540727 19.534904 -6.407440 -13.941239 12.593766 16.865648 -12.989862 -5.507878 -14.573902 -1.099408 -60.810219 -10.979747 35.040524 -11.359621 -2.402466 -0.062905 15.311672 4.248031 -3.696592 6.168245 17.353603 -1.418246 54.518211 17.780474 36.353935 17.570843 -1.384128 0.404431 1.740672 5.915547 -7.620901 -26.881460 23.631653 -21.510674 6.969520 -3.278729 -8.401702 -8.121612 3.843442 -11.666993 -34.240986 2.515711 19.095631 26.156261 1.454322 20.932268 -11.464955 1.011478 11.709748 
-8.491718 49.226234 -23.353632 7.485476 -12.920064 43.765362 0.000000 0.000000 0.000000 14.560725 2.949190 6.498580 19.598976 -6.576159 -13.328387 12.406406 16.683985 -12.381671 -5.912472 -14.609805 -1.154822 -59.954979 -10.782743 34.046894 -12.012365 -1.959117 -0.037407 15.255323 4.120227 -4.219895 6.534314 17.573298 -1.504241 53.962204 17.865753 35.971630 18.015137 -1.702619 0.450026 1.367667 5.789505 -8.345918 -26.783018 24.461222 -19.452991 6.584820 -3.592931 -8.534699 -8.107768 3.460294 -12.153754 -35.063553 2.663435 18.918617 25.743624 1.318494 21.456985 -11.324431 1.709807 12.912209 
-8.325288 49.163692 -23.749355 7.877217 -13.257141 41.638924 0.000000 0.000000 0.000000 14.879704 2.661695 6.400427 19.676439 -6.805568 -12.721672 12.209986 16.541241 -11.763002 -6.316929 -14.635916 -1.209736 -59.111012 -10.640098 33.052078 -12.567886 -1.526124 -0.003873 15.014619 3.979955 -4.674739 6.942787 17.802336 -1.593284 53.400219 17.875704 35.560722 18.500149 -2.078908 0.512680 0.926119 5.663446 -9.095475 -26.731562 25.094452 -16.768530 6.649930 -3.700552 -9.078938 -8.113854 3.155746 -12.572883 -35.787746 2.800897 18.733450 25.223980 1.202148 21.933142 -11.127858 2.365513 14.042665 
-8.150909 49.101448 -24.151619 8.229476 -13.575003 39.568726 0.000000 0.000000 0.000000 15.267438 2.383608 6.256128 19.756752 -7.076025 -12.104452 12.024916 16.446833 -11.128070 -6.670127 -14.631727 -1.271363 -58.289707 -10.573257 32.101116 -13.006362 -1.136328 0.046852 14.589340 3.837114 -5.079889 7.413659 18.021921 -1.688914 52.854298 17.797171 35.135334 19.027264 -2.537364 0.582297 0.425809 5.498202 -9.886584 -26.751072 25.572506 -13.679122 7.178524 -3.640890 -9.981009 -8.166541 2.959375 -12.813745 -36.390491 2.956022 18.525499 24.597851 1.085641 22.357595 -10.886617 2.918221 15.038497 
-7.971117 49.039810 -24.557570 8.542363 -13.883579 37.554356 0.000000 0.000000 0.000000 15.684990 2.134327 6.048698 19.831202 -7.398419 -11.486459 11.861040 16.390915 -10.484917 -6.931594 -14.601439 -1.292876 -57.513138 -10.638412 31.178673 -13.221340 -0.830446 0.070439 14.048062 3.644040 -5.409276 7.937670 18.249279 -1.801525 52.319481 17.636950 34.732243 19.597994 -3.099441 0.659403 -0.133166 5.303447 -10.700702 -26.881180 25.945032 -10.500330 8.053442 -3.436913 -11.053673 -8.251901 2.868055 -12.932592 -36.889534 3.132183 18.399893 23.856970 1.007146 22.659651 -10.585046 3.453462 15.886670 
-7.788838 48.980152 -24.964960 8.826132 -14.192385 35.612270 0.000000 0.000000 0.000000 16.122429 1.904513 5.794560 19.880098 -7.764359 -10.864604 11.738432 16.363508 -9.826171 -7.121128 -14.534031 -1.294834 -56.785217 -10.867749 30.264500 -13.220969 -0.609557 0.112271 13.390130 3.439983 -5.702599 8.504402 18.476061 -1.923865 51.803017 17.402611 34.354908 20.192122 -3.709251 0.757632 -0.731119 5.069313 -11.507386 -27.141056 26.254684 -7.457307 9.210336 -3.133338 -12.184718 -8.422621 2.920892 -12.921817 -37.297646 3.326133 18.384050 23.011812 0.966514 22.820009 -10.229077 3.858091 16.544043 
-7.606642 48.924797 -25.371931 9.091174 -14.510835 33.768307 0.000000 0.000000 0.000000 16.560019 1.675583 5.488463 19.913033 -8.150404 -10.258684 11.677371 16.364403 -9.171601 -7.228921 -14.437083 -1.290341 -56.102337 -11.246800 29.378309 -13.025416 -0.466632 0.141726 12.625054 3.235059 -5.970684 9.093934 18.711096 -2.061399 51.301418 17.107162 34.019268 20.801266 -4.384645 0.885249 -1.358153 4.795733 -12.277582 -27.562199 26.557884 -4.858438 10.550308 -2.771813 -13.189034 -8.619851 3.142490 -12.768826 -37.631687 3.532360 18.450232 22.073662 0.986385 22.802431 -9.770024 4.175417 16.898579 
